<?xml version="1.0" encoding="UTF-8"?>
<svg id="Capa_17" data-name="Capa 17" xmlns="http://www.w3.org/2000/svg" viewBox="0 0 1544.17 544.53">
  <defs>
    <style>
      .cls-1 {
        fill: #3d1202;
      }
    </style>
  </defs>
  <path class="cls-1" d="M221.88,169.31h-81.35v-48.36h214.55v48.36h-81.33v259.39h-51.87V169.31Z"/>
  <path class="cls-1" d="M462.75,202.28v47.49h-67.26c-10.11,0-18.02,8.36-18.02,18.02v160.91h-50.12v-226.42h135.4Z"/>
  <path class="cls-1" d="M573.17,408.05c-14.95,16.7-32.52,25.06-54.5,25.06-46.16,0-83.1-37.37-83.1-83.53s36.94-83.53,83.1-83.53c19.33,0,37.8,6.59,48.36,17.58v-21.53c0-7.48-6.16-13.64-13.64-13.64h-69.02v-46.16h81.76c29.91,0,51.01,21.1,51.01,51.01v175.41h-43.98v-20.66ZM568.78,350c0-22.86-18.02-40.43-42.21-40.43s-42.21,17.58-42.21,40.43,18.45,40.45,42.21,40.45,42.21-18.02,42.21-40.45Z"/>
  <path class="cls-1" d="M712.62,283.19h15.39c45.71,0,79.58,31.65,79.58,74.3s-36.5,75.62-83.98,75.62-90.57-36.05-90.57-88.81h49.69c0,31.22,22.86,44.41,41.78,44.41s33.4-12.76,33.4-30.34-14.07-31.22-35.17-31.22h-12.74c-37.37,0-65.94-26.81-65.94-62.43s28.14-62.43,65.49-62.43h71.67v46.61h-68.59c-12.3,0-19.78,7.03-19.78,17.15s7.48,17.15,19.78,17.15Z"/>
  <path class="cls-1" d="M831,202.28v-59.35h50.12v59.35h84.86v47.49h-84.86v118.26c0,11.44,7.48,19.8,18.02,19.8s17.59-8.36,17.59-19.8v-55.38h49.24v58.03c0,35.17-29.03,62.43-67.28,62.43s-67.69-28.14-67.69-65.51v-117.83h-27.71v-47.49h27.71Z"/>
  <path class="cls-1" d="M1308.67,283.19h15.39c45.73,0,79.58,31.65,79.58,74.3s-36.5,75.62-83.98,75.62-90.55-36.05-90.55-88.81h49.67c0,31.22,22.86,44.41,41.76,44.41s33.42-12.76,33.42-30.34-14.07-31.22-35.17-31.22h-12.74c-37.37,0-65.94-26.81-65.94-62.43s28.14-62.43,65.49-62.43h71.67v46.61h-68.59c-12.3,0-19.78,7.03-19.78,17.15s7.48,17.15,19.78,17.15Z"/>
  <path class="cls-1" d="M1210.06,268.09l-41.58,40.21c.17,2.14.26,4.32.26,6.54,0,41.33-29.01,71.67-68.59,71.67-16.27,0-30.77-4.83-42.21-13.62l133.65-134.1c-22.86-26.38-55.4-40.88-91.45-40.88-67.69,0-119.58,50.55-119.58,117.38s52.32,117.83,119.15,117.83,120.01-51.44,120.01-117.83c0-17.61-3.53-33.1-9.67-47.19ZM1031.58,314.83c0-40.88,29.44-71.65,68.57-71.65,8.36,0,16.72,1.31,23.75,4.39l-89.24,89.24c-2.2-6.59-3.08-14.07-3.08-21.98Z"/>
</svg>